ply
format ascii 1.0
comment VCGLIB generated
element vertex 453
property float x
property float y
property float z
property float nx
property float ny
property float nz
element face 948
property list uchar int vertex_indices
end_header
-0.156108 0.63152 0.0257462 0.800661 6.06316 -1.02946 
-0.223387 0.65602 0.0285239 3.81074 4.26369 -1.43809 
-0.341505 0.72414 0.206844 1.59195 2.94913 4.37239 
-0.0300048 0.65199 0.089493 -0.863645 6.05358 0.710423 
-0.086784 0.638065 0.0263442 -1.10642 6.04089 -1.0042 
0.165257 0.53517 0.159772 4.19282 2.87811 3.45834 
0.200437 0.52605 0.0867095 5.54422 2.63735 0.543527 
-0.150901 0.53161 0.199872 -0.665727 2.92085 5.47752 
0.152096 0.59286 0.094034 4.20689 4.2897 0.78599 
-0.320411 0.796955 -0.084548 4.19719 2.90921 0.657147 
0.223523 0.463938 0.0253792 5.91852 1.28425 -0.786343 
-0.158377 0.851975 -0.0317511 2.52375 1.63326 5.3037 
-0.424262 0.67039 0.235088 -3.51811 1.66388 4.19527 
-0.344273 0.61026 0.258785 2.31883 -0.603639 3.91704 
0.0297737 0.65512 0.089126 0.67901 5.96005 0.773551 
0.202314 0.52571 0.0320489 5.46586 2.72083 -0.457233 
0.193671 0.510805 -0.0231556 4.85942 2.1031 -2.85842 
-0.457256 0.67068 0.085513 -6.20777 0.491592 -0.307226 
-0.40936 0.53583 0.15508 -4.60122 -2.07181 3.28912 
-0.33609 0.780775 0.0894315 0.113642 6.11048 0.308088 
-0.397843 0.764375 0.149656 -1.84719 5.05068 1.95549 
0.0298003 0.61252 0.173136 0.782007 4.00484 4.54536 
-0.258159 0.725005 0.092402 5.22627 2.23182 2.45956 
-0.38989 0.66275 0.256747 -0.535753 1.84264 4.74271 
-0.0295354 0.63967 0.137312 -0.796251 5.45161 2.57853 
-0.239567 0.646505 0.134823 3.78745 3.32473 3.48656 
-0.412135 0.464067 -0.0278023 -5.08721 -0.0704319 -3.34775 
0.0872 0.63847 0.092674 2.59027 5.38391 0.835645 
-0.453434 0.601525 0.033402 -5.24343 -0.320208 -2.56186 
-0.147019 0.89515 -0.0393979 -0.654571 2.04431 1.81316 
-0.398946 0.7188 0.213497 -1.34651 3.69937 3.94795 
-0.09144 0.541645 0.207549 -1.19965 2.82002 5.43588 
-0.101163 0.90923 -0.091637 0.209071 1.07384 -0.14353 
-0.18852 0.839935 -0.0651955 -3.02329 1.4666 -4.19739 
0.0291082 0.6403 0.139508 0.597557 5.33442 2.75344 
-0.217694 0.65007 0.0876665 3.6527 4.61572 1.44129 
0.0943495 0.59931 0.162045 2.23514 4.05813 3.95383 
-0.22005 0.835175 0.0115949 -0.193448 3.26015 3.61279 
-0.449055 0.662005 0.0352871 -5.45372 0.66319 -2.51922 
-0.28676 0.724945 0.157598 4.50378 1.89833 3.39948 
0.221311 0.467263 0.0882085 5.88748 1.39144 0.986845 
0.206171 0.460865 0.142801 5.53636 1.19632 2.3848 
-0.281976 0.772825 0.08439 3.05255 4.40886 1.1278 
-0.103068 0.798865 -0.0358761 1.53537 -1.39943 1.51782 
-0.364946 0.328058 0.0908465 -3.58934 -4.83593 1.07717 
-0.336984 0.77628 0.0290694 0.433932 5.78066 -1.15481 
-0.452432 0.593055 0.206074 -4.07867 -1.85052 1.72846 
0.136571 0.589825 0.143095 3.39653 3.7206 2.82215 
0.209535 0.458193 -0.0278473 5.42827 1.22211 -2.47302 
-0.351054 0.826515 -0.0973305 0.830779 3.48517 1.15249 
-0.0309235 0.613645 0.173935 -0.608065 4.35098 4.20807 
0.150069 0.466393 0.210738 3.48865 1.5322 4.80811 
-0.0875645 0.81063 -0.0727445 1.87953 -1.12795 -0.896114 
-0.381989 0.856455 -0.20551 -1.49306 0.440926 0.203605 
-0.427114 0.52693 0.0169743 -5.39809 0.0833356 -3.15204 
0.185215 0.552215 0.103614 4.69019 3.473 0.758418 
-0.0329866 0.213642 0.234696 0.159646 -2.79668 6.08518 
0.0319897 0.218503 0.23413 1.29819 -2.94863 5.32724 
-0.279624 0.78803 0.0328228 -1.32189 4.68284 0.909157 
-0.455724 0.59408 0.149221 -5.59585 -1.76641 1.02175 
-0.297554 0.64176 0.199813 4.14628 0.987027 4.35704 
-0.0881675 0.638025 0.089683 -1.38586 5.92542 1.12999 
-0.333165 0.769155 0.154352 0.771834 4.8459 2.74622 
-0.218209 0.84719 -0.0275113 -2.99647 3.42178 -1.50821 
-0.286379 0.216215 0.21431 -1.0671 2.41443 3.22982 
-0.381887 0.786105 -0.0844445 -4.67832 0.466731 0.313775 
-0.21723 0.78025 0.0307897 3.06629 0.0750842 3.49882 
-0.213559 0.210823 0.213502 -1.10667 0.948295 5.8182 
-0.1271 0.443311 0.251913 -3.51672 1.10061 4.67914 
-0.070895 0.63135 0.133208 -2.0354 5.08964 2.49075 
-0.441291 0.449344 0.0348312 -5.70444 -0.981706 -1.29158 
-0.344348 0.788865 -0.0343796 2.07791 3.54207 1.64742 
-0.339838 0.714385 -0.0378821 1.13779 -0.42558 -4.77783 
0.094269 0.531465 0.208451 1.55968 2.85 5.29663 
-0.182435 0.856125 0.00272518 0.613359 0.607314 0.954492 
-0.332176 0.58599 -0.0493581 -1.80088 1.5336 -5.75431 
-0.341303 0.85199 -0.218497 1.77566 1.05089 -0.315542 
-0.454625 0.73025 0.095191 -4.70918 2.32566 -0.086975 
0.0339311 0.579205 0.194039 0.865821 3.1336 5.31293 
0.15507 0.465348 -0.08899 3.48133 1.73247 -4.78277 
0.028488 0.52945 0.217755 0.699281 3.1051 5.38609 
-0.353259 0.65315 0.251249 2.40019 2.62182 4.31902 
0.029873 0.65429 0.028974 0.620567 5.9489 -0.920795 
0.0921085 0.211591 0.212385 2.91697 -2.62587 4.46504 
0.073938 0.454874 0.254829 2.0891 2.09372 5.40486 
-0.0299116 0.577045 0.201014 -0.196248 3.02523 5.36216 
-0.405656 0.58986 -0.0179727 -3.87741 0.0474449 -4.76999 
-0.393516 0.72137 -0.0194526 -4.25564 0.397042 -4.01293 
0.0290994 0.53113 -0.104484 0.737251 3.18148 -5.34884 
-0.0963805 0.599265 0.16403 -1.76537 4.50905 3.85589 
-0.0296558 0.651075 0.02977 -0.805834 6.06983 -0.807814 
-0.446661 0.713725 0.145163 -5.36232 2.29831 1.44449 
-0.0381269 0.616365 -0.0490778 -0.585345 4.76828 -3.90712 
-0.346132 0.89461 -0.271371 0.541873 1.54492 -1.0719 
-0.149378 0.62126 0.104837 0.277904 5.56457 2.73271 
-0.424133 0.744935 0.163848 -3.47031 3.39625 1.29525 
-0.444258 0.454861 0.089517 -5.55733 -0.904288 1.24806 
-0.152939 0.61192 -0.0317886 0.560623 5.40485 -3.02394 
-0.153599 0.589945 0.153083 -0.47118 4.53889 4.23322 
-0.390306 0.603265 0.256999 -1.38691 -1.60839 4.9694 
0.166357 0.54249 -0.0371597 3.95177 3.10983 -3.34892 
-0.338556 0.464459 -0.084407 -2.36673 0.74178 -5.67582 
-0.37833 0.455909 -0.0684835 -3.40955 0.301359 -4.65627 
-0.41211 0.47556 0.155439 -4.93504 -0.112961 3.53346 
-0.428492 0.684515 0.0096061 -4.89735 0.989942 -3.60946 
-0.146402 0.208874 0.256985 -2.42574 0.483661 3.82233 
-0.08866 0.211932 0.25842 1.63649 1.22849 4.12981 
-0.328493 0.855035 -0.28322 0.351464 0.246088 -1.33487 
-0.149262 0.854525 -0.0828045 -2.28324 0.442234 -4.93034 
-0.281251 0.675065 0.165228 4.75621 1.60748 3.73349 
-0.333063 0.665105 0.223522 3.56476 2.01904 4.53752 
-0.21269 0.777205 -0.0374677 -0.330704 -2.86994 -3.31001 
-0.272654 0.357302 0.198521 -1.22077 -3.12848 5.19273 
-0.206579 0.453461 -0.112941 -1.32976 0.049646 -6.03597 
-0.086438 0.460887 0.268106 -1.54394 2.53625 4.84899 
-0.029906 0.470154 0.271322 -0.284773 2.74011 5.24364 
0.211862 0.336282 0.1479 4.00277 0.892095 4.47592 
0.142871 0.584545 -0.0195886 3.68783 3.87912 -2.57079 
-0.165906 0.225372 0.225573 -3.18314 1.69197 4.7316 
-0.269701 0.59283 0.176865 3.03248 1.55406 5.05155 
0.211362 0.397773 -0.0289731 5.54853 -0.100775 -2.78003 
0.148637 0.212751 0.152488 2.92004 -4.18917 3.51483 
-0.15782 0.479666 -0.1184 -2.42934 2.17206 -5.04728 
0.190902 0.525605 0.133474 4.88724 2.35768 2.41469 
-0.142494 0.45246 -0.145427 -3.12411 2.22129 -4.81491 
-0.0865945 0.218971 0.216348 0.596707 -1.44729 2.69878 
0.0188377 0.238775 0.251018 1.05626 -2.83672 5.21583 
0.216336 0.229145 0.139125 2.39343 -3.59762 3.77426 
-0.116661 0.906195 -0.0564465 1.11179 1.21606 0.94797 
-0.028129 0.282519 0.269409 -0.825891 -1.95073 5.73254 
0.0264715 0.278399 0.26644 1.31396 -1.87563 5.63675 
-0.44161 0.528785 0.0864915 -6.00062 -1.01442 0.936944 
-0.283187 0.235092 0.152905 -4.17354 3.97553 1.31544 
-0.148122 0.271594 0.199475 -1.75463 1.26057 5.1027 
-0.0298703 0.529485 0.220335 -0.411926 3.12782 5.37819 
-0.107061 0.273488 0.223205 -2.88769 0.450751 4.94576 
-0.080744 0.287181 0.25452 -2.93628 -1.73922 4.93683 
-0.284153 0.73196 -0.013213 0.653206 1.52646 -5.49916 
-0.465733 0.595335 0.089974 -5.79817 -0.69654 -0.138103 
-0.30931 0.792085 -0.146513 1.81953 -0.0474096 1.03795 
-0.427929 0.5342 0.108645 3.57628e-007 7.15256e-007 -5.96046e-008 
0.168321 0.270272 0.17542 3.41781 -1.78057 4.87136 
0.213855 0.280176 0.157795 2.34492 -0.288283 5.60648 
-0.217295 0.585955 0.158522 1.31434 3.51988 4.90378 
-0.340481 0.783605 -0.213087 -0.231264 -1.68743 -1.83019 
0.136192 0.51578 0.198529 3.02615 2.28489 4.81976 
-0.146966 0.89268 -0.0727815 -3.41315 2.36083 -1.72488 
-0.381348 0.456122 0.191709 -3.31106 0.797498 4.31706 
-0.0956425 0.492976 0.228338 -1.59578 3.47981 4.87853 
-0.265455 0.283701 0.146981 -4.62801 -1.64722 2.77104 
-0.215989 0.277889 0.195419 -2.15986 0.152051 5.71243 
-0.416528 0.578215 0.23414 -2.4105 -2.82132 3.6778 
0.0721725 0.635405 0.131485 2.10814 4.87606 2.16971 
-0.194457 0.618805 0.124889 1.76746 4.58179 3.79601 
-0.297179 0.599525 0.199878 3.87601 -0.377742 4.86346 
-0.351166 0.77131 -0.1562 -1.35952 -2.87668 -1.7757 
-0.287237 0.76288 0.142254 2.90403 2.51944 1.98348 
-0.240019 0.28183 0.181332 -2.43934 -3.50074 2.90261 
-0.053631 0.89831 -0.138736 0.631438 0.484555 -0.689911 
-0.441146 0.53033 0.0423378 -5.9387 -0.482716 -1.55133 
-0.39497 0.76992 0.0325931 -3.00517 4.70517 -0.990861 
-0.147838 0.63036 0.073169 0.379063 6.13153 0.761333 
-0.408678 0.77195 0.088666 -2.59966 5.02813 -0.0570666 
-0.397734 0.52097 -0.0310137 -4.29872 0.937798 -4.33195 
-0.124304 0.614565 0.122714 -1.0268 5.40807 3.02247 
-0.332208 0.799785 -0.266856 -0.092918 -0.556778 -0.108476 
-0.392439 0.352641 0.0872305 -4.62525 -3.96426 0.700164 
-0.0483551 0.866125 -0.132473 1.64183 -0.703279 -1.42018 
-0.283142 0.273516 0.0372282 -5.18269 -1.66933 0.0383001 
-0.0920075 0.611095 -0.0387567 -0.907772 5.26821 -3.23127 
-0.347976 0.73206 -0.09016 -0.939281 -3.78083 -1.374 
-0.206259 0.61598 -0.0479043 0.694004 4.51332 -3.96877 
-0.342486 0.74097 -0.14363 -0.108569 -1.91399 -1.1232 
-0.270018 0.277715 0.088837 -4.29521 -1.76281 0.751255 
-0.0846015 0.341084 0.26575 -3.11336 -1.54087 5.04099 
-0.0303611 0.338551 0.28225 -0.527165 -1.06097 6.01608 
0.0354364 0.336609 0.276684 1.47333 -0.738086 5.90527 
-0.071587 0.584855 0.18918 -1.65583 3.49105 4.74607 
0.269462 0.278773 0.133122 3.62897 -1.04948 3.76612 
0.0258927 0.465869 0.267936 1.18397 2.48675 5.31071 
-0.215519 0.337194 0.203869 -1.08476 -1.28747 5.97106 
-0.146535 0.340367 0.20508 -1.93262 -1.05323 5.41612 
-0.189777 0.80977 -0.0640105 -1.90104 -1.78211 -4.28647 
-0.280582 0.327165 0.170989 -2.49511 -3.21171 4.73237 
-0.380853 0.777795 -0.029636 -3.77405 3.89073 0.395646 
-0.276091 0.61253 -0.0473244 0.0456975 3.18993 -5.31308 
0.088502 0.529915 -0.093069 2.1401 2.86537 -5.09459 
0.267291 0.328187 0.132168 2.65126 2.11707 3.18876 
-0.434576 0.472078 0.0146559 -5.70457 0.285861 -2.17594 
-0.382129 0.808535 -0.148759 -4.83643 -1.67585 -1.98019 
-0.22048 0.637265 -0.0163938 1.56784 5.15947 -3.02471 
-0.156459 0.399149 0.217472 -2.359 -0.921427 5.35722 
-0.274724 0.53174 -0.0928125 -1.21899 1.81846 -5.73509 
-0.361868 0.550285 -0.0471628 -2.94571 1.47121 -5.33625 
-0.27683 0.459915 -0.105891 -1.25348 0.311419 -5.98969 
-0.244045 0.330064 0.186979 -0.0595373 0.111371 0.0742164 
-0.236543 0.72578 0.0344234 5.97654 -1.05094 0.420987 
-0.401956 0.64817 -0.0234878 -3.34774 0.193496 -4.93936 
-0.20901 0.52967 -0.099346 -0.604479 1.95361 -5.89227 
-0.0316069 0.465826 -0.164468 0.805645 3.03889 -5.21605 
-0.0298527 0.53069 -0.111141 0.250828 3.56911 -5.15204 
-0.147413 0.791465 -0.0309633 1.6529 -3.15666 1.36315 
-0.0889765 0.531445 -0.108886 -0.275488 3.63311 -5.1102 
-0.44263 0.689195 0.196982 -4.78185 2.38732 2.11102 
-0.337467 0.64196 -0.0431735 -0.463627 0.790327 -6.05903 
0.231846 0.357564 0.108377 3.89163 2.43069 3.53496 
-0.204783 0.58584 -0.0729045 0.100541 3.55111 -5.03876 
-0.053328 0.837705 -0.0995065 0.462485 -0.728347 0.281277 
-0.266273 0.78728 -0.0140948 -3.68307 1.09192 -3.68069 
0.0265494 0.466564 -0.150926 1.5056 2.51714 -5.37271 
-0.386718 0.363613 0.133273 -4.0412 -3.57962 2.59117 
-0.312544 0.74967 -0.0751595 3.58362 -1.22914 0.488695 
-0.344007 0.342863 0.153324 -3.07954 -4.12814 3.29103 
-0.272626 0.404239 -0.100854 -0.888463 -1.58353 -5.8465 
-0.218384 0.39458 0.214428 -0.160097 -0.881676 6.19149 
-0.092874 0.394852 0.278677 -2.41536 -0.302791 5.16494 
-0.0299997 0.397274 0.289004 -0.0589247 0.333999 5.99934 
0.0353242 0.405959 0.279094 1.42732 0.514455 5.93758 
-0.425134 0.73017 0.0292977 -4.73878 2.75543 -2.60617 
0.185056 0.551985 0.0132647 4.75035 3.4949 -1.01544 
-0.341542 0.401658 0.203554 -2.43032 -1.89957 4.99667 
-0.27947 0.396297 0.217668 -0.608448 -1.51943 5.7384 
0.190728 0.440528 -0.0693375 4.3079 1.27961 -3.65512 
-0.321418 0.198209 0.19812 -3.40709 1.3596 2.27309 
-0.349348 0.84268 -0.156659 1.46512 3.25828 0.823376 
-0.30898 0.778705 -0.103961 3.70697 0.663385 -1.02193 
-0.311424 0.8118 -0.198144 3.70632 0.3047 -1.33168 
-0.343432 0.461852 0.210989 -2.03853 0.147076 5.65239 
-0.246765 0.69649 0.0739775 5.53732 2.0634 0.490075 
-0.392089 0.55063 0.208943 -1.8632 -4.63078 2.95153 
0.089708 0.396374 0.259431 2.77747 0.120674 5.47433 
0.0266366 0.618305 -0.0498552 0.530948 4.73552 -3.87693 
-0.278387 0.467603 0.221035 -0.187149 0.57439 6.06886 
-0.215962 0.460577 0.216345 -0.0406275 0.551385 6.22398 
-0.149313 0.470062 0.222402 -1.86755 1.63116 5.58891 
0.102977 0.435565 0.246163 2.98266 1.10021 5.35426 
0.08605 0.638315 0.0256297 2.54751 5.40396 -0.911813 
-0.145062 0.533595 -0.10374 -0.680346 2.96106 -5.45042 
0.0927215 0.474056 0.238793 2.07171 2.50312 5.25406 
-0.0294338 0.58311 -0.0800245 -0.132548 3.63508 -5.05811 
-0.264095 0.813245 0.0148355 -2.63261 2.91664 1.37635 
0.179039 0.479297 -0.060164 4.47108 1.58333 -3.9165 
-0.456032 0.657075 0.147654 -6.17941 0.567898 0.565978 
-0.33937 0.53476 0.201862 -0.4436 -1.23136 5.58704 
-0.220818 0.52459 0.200853 0.169259 2.43214 5.74038 
0.0374793 0.49175 0.244127 2.98023e-007 0 0 
-0.277481 0.51949 0.205702 0.240671 2.26211 5.8235 
-0.334522 0.578585 0.23674 2.52066 -2.3174 3.99701 
-0.250762 0.70163 0.0129409 4.37342 -0.325959 -4.07007 
-0.277254 0.6621 -0.0242723 2.52106 2.11485 -5.19536 
-0.07376 0.909485 -0.131391 -0.304928 1.47199 -0.953678 
-0.14779 0.808915 -0.071684 -0.535814 -3.3773 -4.19705 
-0.280927 0.556385 0.186857 0.971757 1.2752 5.72517 
-0.20492 0.55248 0.185442 0.477306 2.8396 5.20009 
-0.160028 0.55234 0.185219 0.191491 3.88344 4.83353 
0.125016 0.553055 0.184229 2.79309 3.30751 4.22748 
-0.234935 0.73717 -0.0111268 2.51843 -2.34076 -3.00168 
-0.0917035 0.176181 0.253969 1.80673 -2.00194 1.89564 
-0.089203 0.85242 -0.0905715 0.495572 -0.755322 -0.151539 
-0.284736 0.174708 0.211859 -0.646239 -2.92595 3.12422 
0.029167 0.175538 0.210457 0.541432 -2.35221 2.7211 
-0.214012 0.175787 0.208436 -0.0498381 -3.76504 3.22386 
-0.33231 0.523885 -0.074291 -2.61142 1.5699 -5.39288 
0.128726 0.229568 0.190592 3.903 -2.74696 3.97628 
0.189725 0.408584 -0.0707735 4.42815 -1.30062 -3.5566 
-0.422131 0.398857 0.093166 -5.39009 -2.5234 1.1149 
0.266252 0.23795 0.0909515 4.05877 -3.92119 1.20825 
0.093212 0.268018 0.231075 2.90616 -1.75866 5.23516 
0.0366258 0.591215 -0.076506 0.714493 3.55249 -4.80746 
-0.157352 0.78533 0.00488108 0.35551 -0.00684118 0.30009 
0.143114 0.28438 0.203818 3.63549 -1.44068 4.83309 
0.290796 0.275008 0.090127 5.18226 -1.32466 0.971206 
0.08432 0.449675 -0.134552 2.54054 1.72635 -5.37471 
0.072889 0.292884 0.250845 2.79799 -1.56516 5.33636 
0.183624 0.459092 0.183124 4.58386 1.22264 3.75307 
-0.0994005 0.83202 -0.0563495 4.09975 2.30292 3.18429 
0.075147 0.338679 0.260336 2.73745 -0.896686 5.52134 
0.105262 0.34058 0.242173 3.45228 -1.01701 5.12386 
0.149388 0.339968 0.209586 3.73763 -0.835311 4.9704 
0.184179 0.339248 0.183205 4.35876 -0.686198 4.2864 
0.287374 0.341109 0.0857125 4.34026 2.2521 0.922012 
0.158421 0.392543 -0.09604 4.01534 -0.283998 -4.7157 
-0.380136 0.87852 -0.253468 -3.32169 -0.0525089 -2.09643 
-0.327698 0.303943 0.0878535 -3.0493 -5.2839 0.85203 
-0.403013 0.407235 0.153258 -4.62161 -1.92763 3.06345 
0.0948745 0.60753 -0.0347283 2.61668 4.29668 -3.38035 
0.15342 0.39773 0.215753 3.91285 -0.134167 4.80868 
0.185944 0.396242 0.183969 4.74313 -0.077433 4.01486 
0.209683 0.397956 0.147956 5.51939 0.409465 2.84228 
0.23016 0.396847 0.088847 5.51945 2.05904 1.596 
-0.393961 0.353886 0.0342792 -4.73706 -3.79783 -0.705188 
-0.146994 0.579585 -0.0735325 -0.00686349 4.20834 -4.58798 
-0.434962 0.56759 0.0205204 -0.488258 -0.368468 0.584643 
-0.071093 0.870065 -0.129903 -2.47774 -1.82763 -4.02371 
0.0873975 0.176066 -0.0296428 1.57561 -5.54598 -1.16299 
0.0810705 0.179237 -0.0810655 2.34152 -3.72698 -1.85218 
0.096624 0.179161 0.156603 1.8939 -5.44096 1.34588 
0.217772 0.20555 0.0289958 2.69326 -5.12985 -1.37147 
0.113095 0.203026 -0.0396772 3.26705 -4.38226 -2.90168 
0.095674 0.21391 -0.0960475 3.30951 -3.53079 -3.60004 
0.207317 0.228151 -0.0177257 2.15428 -3.32094 -4.18305 
0.218462 0.205984 0.0886 2.68886 -5.2698 1.16253 
0.256436 0.23198 0.0290265 3.8984 -4.06246 -1.58054 
0.142889 0.525905 -0.0711905 2.75655 3.09064 -4.17402 
0.153374 0.222562 -0.0308997 2.85227 -3.95143 -3.81215 
-0.092059 0.474029 -0.153717 -1.21287 3.57334 -4.94583 
-0.157742 0.171512 -0.142041 -0.110917 -2.66033 -2.71114 
0.13019 0.237951 -0.082897 3.80386 -2.91487 -3.52493 
0.277098 0.343189 0.0294827 3.36207 2.94023 -1.65163 
0.260187 0.275365 -0.012408 3.45769 -1.00766 -3.99417 
0.283688 0.271112 0.0256242 5.00204 -1.41081 -1.74292 
0.214024 0.276643 -0.0302352 2.6509 -1.11207 -5.47287 
-0.310018 0.83711 -0.263582 2.96056 0.0919716 -0.131225 
0.170564 0.270888 -0.0474173 3.43531 -2.56139 -4.37309 
0.14759 0.280282 -0.0879375 4.50372 -1.62859 -3.8271 
-0.0889435 0.579555 -0.078919 -0.479581 3.98903 -4.72182 
-0.208919 0.178801 -0.132054 -2.2222 -1.22314 -2.16736 
-0.0259469 0.21523 -0.136667 1.04691 -3.06621 -5.28832 
-0.332029 0.171825 -0.0208334 -2.07653 -1.83586 -1.79345 
0.237707 0.356087 0.0271308 4.09188 2.66426 -2.9334 
0.124569 0.412582 -0.122938 3.01118 0.293548 -5.11064 
-0.149512 0.213016 -0.14159 -1.5839 1.24604 -5.00013 
0.10906 0.257933 -0.118246 3.53155 -1.91222 -4.3694 
-0.135769 0.175804 0.254633 -1.34052 -2.64252 2.64466 
0.0805905 0.57815 -0.0727255 2.69941 2.91804 -4.24778 
0.15869 0.339991 -0.091766 4.22273 -0.576926 -4.4883 
0.209113 0.3376 -0.0275777 4.53063 0.794512 -4.06436 
0.257436 0.31864 -0.0087397 3.37864 1.86837 -3.9847 
-0.446652 0.641545 0.214012 -5.01632 0.411402 2.90533 
0.229692 0.398154 0.0289816 5.8754 1.3596 -1.41963 
-0.352716 0.749485 -0.193659 1.78814e-007 1.49012e-008 0 
-0.214809 0.215121 -0.088144 -3.57938 3.21647 -2.8627 
-0.359838 0.88924 -0.237302 1.42579 3.98124 2.71157 
-0.380264 0.888255 -0.235728 -2.09716 2.44877 1.04628 
0.152086 0.592475 0.0286907 4.17168 4.38684 -0.710073 
-0.385725 0.83853 -0.149399 -3.25785 2.47849 0.833212 
0.101334 0.464305 -0.118681 2.7201 2.43522 -5.11166 
-0.127407 0.399348 0.255273 -2.77591 -2.31483 2.98481 
-0.32527 0.176629 0.0811185 -3.18831 -1.88058 1.2674 
-0.323838 0.175396 0.14724 -3.1811 -2.3201 -0.51065 
-0.322133 0.207295 0.152238 -4.34632 2.43753 -0.757653 
-0.3216 0.176131 0.193957 -2.58189 -2.31227 1.50197 
-0.338 0.17015 0.0295245 -3.03746 -2.92185 0.265574 
-0.339767 0.209294 0.0334197 -4.15717 2.29479 0.465258 
-0.286748 0.215774 0.100115 -4.83864 3.06671 0.447312 
-0.317316 0.207161 0.071026 -3.97623 3.5293 2.80356 
-0.297065 0.235691 0.0314269 -4.62677 3.85882 -0.202286 
-0.116917 0.328208 0.225488 -4.17715 -1.30511 4.42195 
-0.31769 0.358325 0.189731 -1.65396 -3.76668 4.00597 
-0.096518 0.405064 -0.192159 -0.681967 1.04699 -5.80396 
-0.213603 0.171779 -0.095651 -1.66322 -3.40664 -0.587541 
-0.0345118 0.1732 -0.101085 0.52507 -4.91033 -0.455127 
-0.328394 0.204166 -0.0200897 -3.12955 2.11646 -2.72048 
-0.191953 0.209609 -0.13202 -1.81698 2.9907 -3.17126 
-0.278293 0.216433 -0.0379417 -3.00526 1.63632 -4.66804 
-0.208393 0.210138 -0.049984 0.283493 -1.02993 -1.47717 
-0.161147 0.223297 -0.0837495 -2.09288 0.252037 -1.11927 
-0.153692 0.281653 -0.092585 -5.30856 -0.69195 -2.78221 
-0.214513 0.280949 -0.0565215 -1.89015 -0.67429 -5.72536 
-0.275142 0.283278 -0.0265687 -3.96306 -2.19274 -3.74713 
-0.130929 0.284418 -0.141347 -4.19499 -0.98172 -4.26003 
-0.276094 0.587305 -0.066872 -1.03026 3.14901 -5.19758 
-0.095329 0.273347 -0.159323 -1.69492 -2.01976 -5.49711 
-0.343814 0.343347 -0.032747 -3.18712 -4.14877 -3.26391 
-0.365252 0.3271 0.027643 -3.55893 -4.78727 -1.06778 
-0.103617 0.336397 -0.182765 -1.98186 -1.79928 -5.19045 
-0.145396 0.33713 -0.14526 -4.88294 -1.44073 -3.42041 
-0.164028 0.332319 -0.0976075 -3.96795 -1.33899 -4.03286 
-0.088804 0.171659 -0.129571 0.389287 -3.83184 -2.56193 
-0.386844 0.366286 -0.0204885 -3.92468 -2.9531 -2.75648 
0.075808 0.63052 -0.0133197 2.16662 5.08613 -2.39403 
-0.422628 0.400286 0.0265351 -5.32181 -2.46971 -1.2999 
-0.396758 0.399279 -0.0320283 -4.54577 -2.04057 -3.25521 
-0.154864 0.39735 -0.156237 -4.67901 -0.0602 -3.49662 
-0.177572 0.409005 -0.113444 -3.62256 -1.04523 -4.65662 
-0.340705 0.400614 -0.082139 -2.61187 -1.71532 -4.97456 
-0.256466 0.171135 -0.0645065 -2.42636 -1.51299 -1.98677 
0.080962 0.402395 -0.146087 2.77869 0.656839 -5.5099 
-0.072239 0.439637 -0.190149 0.605329 0.597374 -3.77498 
-0.0865785 0.216337 -0.141453 -0.117508 -1.5884 -6.0445 
-0.096664 0.489625 -0.12396 0 0 5.96046e-008 
-0.277739 0.168408 -0.0309507 -1.28688 -4.0532 -2.50887 
0.0351314 0.489209 -0.123027 1.19209e-007 -5.96046e-008 0 
-0.074446 0.63034 -0.0126063 -1.84495 5.45891 -2.19579 
0.0876025 0.276057 -0.136378 2.49935 -1.33232 -5.35779 
-0.047683 0.397052 -0.189929 0.856718 0.571616 -5.99632 
0.0262133 0.195668 -0.109735 0.985093 -4.1278 -3.98147 
0.0878265 0.33967 -0.144694 2.88644 -0.368187 -5.4101 
-0.0289535 0.640385 -0.0142553 -0.612037 5.57139 -2.39365 
0.0313278 0.640235 -0.0158525 0.629306 5.50192 -2.54855 
0.0279989 0.173302 -0.089659 -1.03283 -2.57284 -0.532891 
0.14912 0.179571 0.0244488 1.64119 -5.54352 -1.25619 
0.0312596 0.229812 -0.131891 1.2828 -2.88491 -5.3863 
0.0716265 0.236742 -0.125757 1.84201 -2.89183 -5.0886 
0.0302043 0.277536 -0.152157 1.40742 -1.71457 -5.8199 
-0.0306707 0.273186 -0.163175 0.529713 -1.8774 -5.86074 
-0.173347 0.28562 -0.0574765 -2.20451 -0.653566 -3.72372 
-0.0342272 0.339871 -0.179703 0.984486 -1.30271 -6.00938 
0.028279 0.338118 -0.164599 1.67394 -0.882773 -5.96241 
-0.284866 0.325814 -0.047911 -1.82718 -3.46409 -4.84634 
-0.211398 0.349972 -0.0807315 -1.71079 -2.36326 -5.46946 
-0.0878595 0.352736 -0.191131 -0.355806 -1.41454 -5.69438 
-0.27793 0.361492 -0.080609 -0.858689 -3.21359 -5.21103 
-0.318942 0.356348 -0.0692675 -2.1554 -3.34922 -4.28034 
0.0284281 0.395274 -0.169594 1.95459 0.53848 -5.80257 
-0.0169214 0.402256 -0.183613 1.52373 0.752709 -5.79542 
-0.124494 0.407502 -0.185539 -2.55498 0.946793 -4.71364 
-0.206257 0.395689 -0.098873 -1.23804 -1.75056 -5.82847 
-0.367909 0.388513 -0.0610115 -1.19209e-007 4.17232e-007 -2.38419e-007 
-0.09031 0.176314 -0.0977005 -0.0747668 -5.66528 2.28915 
-0.157885 0.179244 -0.0898345 0.537923 -4.15721 3.45062 
-0.0301017 0.190619 -0.072592 0.0310758 -5.77871 1.88367 
-0.0889055 0.191273 -0.0772515 -0.375732 -5.59789 2.02569 
0.0376723 0.177798 -0.0325032 -1.91611 -5.65248 -0.560883 
0.0215218 0.192008 -0.035877 -2.16823 -5.33795 -0.717908 
-0.0296967 0.19474 -0.0296064 -0.0892029 -6.2494 0.143897 
-0.088071 0.193027 -0.0292254 0.10804 -6.27815 0.0750933 
-0.215154 0.170695 -0.0282986 1.32995 -3.94632 -0.958275 
0.094611 0.175538 0.0249885 0.265243 -4.71708 -0.048001 
-0.149565 0.191956 -0.0291338 -0.352671 -4.27544 -1.55043 
0.0256033 0.174199 0.0279249 -0.996475 -4.45647 -0.603224 
0.0051764 0.187958 0.00476111 -2.0922 -5.73005 -1.32557 
-0.0292357 0.191709 0.0295402 -0.924765 -6.11255 -0.52863 
-0.21231 0.171572 0.0295299 -0.00543314 -2.38619 0.104099 
-0.089365 0.191583 0.0299736 0.11015 -6.28012 -0.151343 
0.14331 0.179206 0.093748 1.38543 -5.86099 0.887408 
-0.27513 0.168102 0.0291908 -0.132679 -4.59326 0.05435 
-0.142366 0.190744 0.0220926 0.0600315 -3.10929 -0.0877337 
-0.00473503 0.178687 0.0517345 -2.24237 -5.76029 -0.737406 
0.096612 0.175907 0.098308 0.291792 -4.84249 0.191315 
-0.171163 0.168795 0.0358758 -0.136436 -1.60439 0.182581 
0.0268011 0.172978 0.0899355 -0.946701 -4.25898 0.841483 
-0.00192857 0.17573 0.0670855 -1.88092 -5.70752 0.206723 
0.16706 0.188089 0.105041 1.82807 -5.26223 2.01355 
-0.0294895 0.190891 0.088531 -0.920761 -6.11377 0.522082 
-0.176222 0.175286 0.0891285 0.501732 -2.63761 0.133116 
-0.089039 0.190981 0.089057 0.175967 -6.27854 0.0972876 
-0.130949 0.188796 0.088522 0.571409 -4.81093 0.123114 
-0.281624 0.168381 0.0876325 -0.626684 -3.25029 0.0833333 
0.0057057 0.188305 0.111707 -1.7629 -5.72221 1.85785 
0.0501265 0.177514 0.14828 -0.583663 -4.87888 0.47356 
0.0275063 0.192778 0.148304 -1.01669 -2.66745 0.667822 
-0.029829 0.194473 0.149626 -0.120483 -4.57853 0.62875 
-0.165372 0.177609 0.146118 1.35741 -5.0388 -0.080643 
-0.138858 0.191281 0.161432 0.649143 -3.30283 0.430252 
-0.0895455 0.192951 0.148084 0.313225 -6.10457 1.12754 
-0.209702 0.171849 0.149834 0.379597 -4.1779 0.240581 
0.076215 0.178058 0.206346 1.58346 -3.19187 2.48998 
-0.277151 0.171278 0.148976 -0.287945 -4.60747 0.158563 
-0.330257 0.305572 0.0292774 -3.10246 -5.1893 -1.09632 
-0.0327456 0.175186 0.226979 0.817534 -0.90484 2.95896 
-0.153913 0.173798 0.21648 -1.52744 -2.86749 1.88877 
-0.090417 0.174071 0.229386 0.904464 -2.73188 1.39903 
3 164 94 98 
3 224 335 49 
3 331 350 376 
3 124 122 237 
3 61 89 69 
3 61 161 94 
3 24 89 50 
3 109 25 35 
3 27 34 152 
3 444 443 435 
3 94 35 153 
3 3 61 69 
3 24 69 89 
3 38 218 104 
3 22 42 39 
3 14 24 34 
3 290 166 371 
3 226 76 224 
3 204 197 72 
3 82 3 14 
3 13 81 23 
3 99 13 23 
3 23 110 30 
3 110 2 30 
3 166 265 371 
3 90 61 3 
3 34 24 50 
3 293 167 207 
3 80 78 85 
3 61 94 164 
3 84 238 80 
3 4 161 61 
3 132 149 64 
3 196 22 228 
3 59 46 242 
3 179 84 80 
3 265 96 371 
3 52 258 207 
3 121 127 141 
3 343 168 346 
3 232 227 220 
3 232 243 227 
3 232 246 243 
3 57 126 56 
3 57 130 126 
3 221 232 220 
3 4 61 90 
3 134 80 85 
3 176 217 175 
3 4 0 161 
3 78 21 50 
3 126 130 129 
3 56 126 129 
3 111 182 201 
3 96 70 371 
3 89 164 98 
3 123 6 55 
3 197 87 72 
3 416 419 412 
3 245 80 179 
3 21 78 36 
3 61 164 89 
3 67 132 64 
3 150 149 132 
3 384 387 325 
3 214 221 112 
3 214 233 232 
3 221 214 232 
3 244 246 232 
3 233 244 232 
3 244 252 246 
3 244 143 119 
3 252 244 119 
3 127 142 141 
3 67 150 132 
3 82 90 3 
3 112 180 214 
3 244 253 143 
3 111 201 269 
3 37 74 63 
3 133 150 67 
3 118 133 67 
3 133 180 150 
3 191 214 180 
3 181 191 180 
3 191 234 233 
3 214 191 233 
3 234 244 233 
3 234 7 244 
3 244 98 253 
3 253 98 143 
3 216 217 115 
3 181 180 133 
3 15 16 219 
3 254 98 244 
3 7 254 244 
3 74 11 63 
3 14 3 24 
3 3 69 24 
3 217 216 175 
3 85 78 50 
3 73 78 80 
3 7 98 254 
3 105 133 118 
3 1 248 196 
3 48 241 100 
3 42 156 39 
3 149 173 344 
3 135 133 105 
3 106 135 105 
3 31 7 234 
3 148 31 234 
3 89 98 7 
3 31 89 7 
3 235 84 230 
3 14 27 236 
3 106 125 135 
3 19 20 62 
3 131 54 159 
3 34 50 21 
3 82 14 236 
3 201 52 43 
3 310 308 280 
3 131 159 54 
3 271 310 280 
3 27 14 34 
3 177 89 31 
3 238 73 80 
3 130 176 175 
3 354 331 381 
3 129 130 175 
3 125 136 135 
3 251 52 201 
3 106 56 125 
3 56 129 136 
3 125 56 136 
3 129 175 174 
3 136 129 174 
3 175 216 215 
3 174 175 215 
3 115 114 215 
3 216 115 215 
3 134 85 31 
3 85 177 31 
3 50 89 177 
3 85 50 177 
3 179 80 245 
3 400 407 367 
3 263 83 121 
3 217 179 115 
3 149 132 64 
3 178 187 116 
3 142 178 116 
3 326 120 319 
3 57 83 267 
3 304 391 294 
3 355 354 359 
3 128 29 11 
3 267 273 130 
3 48 16 10 
3 301 302 266 
3 196 66 22 
3 230 84 217 
3 247 13 243 
3 110 81 13 
3 271 178 266 
3 110 13 247 
3 278 277 267 
3 48 10 329 
3 258 11 275 
3 1 196 228 
3 154 247 243 
3 154 110 247 
3 263 141 270 
3 154 60 110 
3 60 154 110 
3 154 60 110 
3 11 74 37 
3 274 5 51 
3 252 154 243 
3 119 252 243 
3 109 110 60 
3 39 2 110 
3 109 39 110 
3 32 128 29 
3 32 128 11 
3 309 300 311 
3 252 119 154 
3 73 145 255 
3 67 64 259 
3 32 29 128 
3 258 275 43 
3 154 119 60 
3 119 109 60 
3 137 256 248 
3 270 267 83 
3 235 238 84 
3 267 130 57 
3 258 32 11 
3 302 310 271 
3 51 238 235 
3 266 302 271 
3 5 36 255 
3 51 235 230 
3 51 145 73 
3 286 51 230 
3 287 274 286 
3 119 25 109 
3 10 40 289 
3 120 48 329 
3 274 51 286 
3 276 230 217 
3 10 16 15 
3 51 5 145 
3 43 11 201 
3 176 276 217 
3 143 25 119 
3 158 207 167 
3 360 321 357 
3 130 273 276 
3 122 198 237 
3 270 278 267 
3 77 218 38 
3 15 6 40 
3 280 187 178 
3 271 280 178 
3 258 207 32 
3 66 58 22 
3 279 287 278 
3 155 139 172 
3 121 141 263 
3 288 41 274 
3 287 288 274 
3 276 176 130 
3 289 288 205 
3 274 41 5 
3 288 287 279 
3 329 10 289 
3 16 100 219 
3 127 178 142 
3 273 267 276 
3 252 119 243 
3 116 279 141 
3 41 123 5 
3 116 288 279 
3 142 116 141 
3 207 158 32 
3 276 277 230 
3 101 102 163 
3 299 298 294 
3 287 286 278 
3 5 255 145 
3 131 159 70 
3 275 11 43 
3 32 158 250 
3 205 288 116 
3 73 36 78 
3 120 329 319 
3 297 391 300 
3 84 179 217 
3 17 77 38 
3 255 36 73 
3 263 270 83 
3 249 248 1 
3 286 230 277 
3 11 37 66 
3 43 52 258 
3 267 277 276 
3 279 278 270 
3 141 279 270 
3 51 73 238 
3 47 36 5 
3 201 66 269 
3 201 11 66 
3 309 310 302 
3 300 309 302 
3 182 33 251 
3 278 286 277 
3 243 246 252 
3 416 427 419 
3 96 131 70 
3 66 256 111 
3 65 335 189 
3 113 374 407 
3 144 139 155 
3 226 224 139 
3 358 400 396 
3 30 91 203 
3 226 139 144 
3 46 328 242 
3 307 304 298 
3 70 159 54 
3 103 265 284 
3 443 261 446 
3 17 38 28 
3 88 200 239 
3 72 170 211 
3 138 17 28 
3 35 1 228 
3 295 299 294 
3 18 131 140 
3 18 59 131 
3 207 258 52 
3 188 70 54 
3 104 87 197 
3 222 48 120 
3 325 326 311 
3 326 281 120 
3 54 159 292 
3 386 299 295 
3 138 59 17 
3 48 100 16 
3 59 242 17 
3 296 121 83 
3 10 15 40 
3 242 91 17 
3 225 9 211 
3 314 322 384 
3 326 325 281 
3 170 225 211 
3 17 91 77 
3 144 76 226 
3 155 9 225 
3 159 131 28 
3 172 139 170 
3 131 138 28 
3 281 264 120 
3 264 222 120 
3 139 155 225 
3 139 225 170 
3 314 325 313 
3 386 295 390 
3 292 159 28 
3 132 149 344 
3 424 427 416 
3 49 335 65 
3 314 313 304 
3 111 269 66 
3 9 71 72 
3 211 9 72 
3 306 316 353 
3 307 314 304 
3 325 311 313 
3 40 41 288 
3 289 40 288 
3 40 6 41 
3 6 123 41 
3 22 39 109 
3 165 312 76 
3 299 307 298 
3 144 165 76 
3 312 107 76 
3 376 381 331 
3 165 107 312 
3 155 172 330 
3 35 228 22 
3 45 184 160 
3 42 62 156 
3 2 39 62 
3 58 42 22 
3 49 71 9 
3 280 116 187 
3 280 205 116 
3 155 330 144 
3 280 289 205 
3 319 280 308 
3 162 77 20 
3 20 77 91 
3 329 289 280 
3 319 329 280 
3 156 62 39 
3 372 408 375 
3 190 1 0 
3 1 35 0 
3 42 19 62 
3 35 161 0 
3 190 0 97 
3 35 22 109 
3 76 53 224 
3 161 35 94 
3 49 9 155 
3 224 49 155 
3 29 63 11 
3 160 162 19 
3 76 333 53 
3 153 25 143 
3 71 49 65 
3 2 20 30 
3 62 20 2 
3 55 8 5 
3 169 0 4 
3 6 8 55 
3 35 25 153 
3 160 218 162 
3 218 77 162 
3 15 334 6 
3 334 8 6 
3 332 76 93 
3 8 47 5 
3 98 153 143 
3 94 153 98 
3 219 334 15 
3 332 333 76 
3 93 76 107 
3 100 334 219 
3 160 19 45 
3 19 162 20 
3 340 132 344 
3 45 19 42 
3 27 47 8 
3 27 36 47 
3 80 115 179 
3 45 42 58 
3 71 184 45 
3 236 27 8 
3 334 236 8 
3 332 93 333 
3 27 152 36 
3 223 64 340 
3 236 334 117 
3 152 21 36 
3 134 148 115 
3 115 148 114 
3 152 34 21 
3 5 123 55 
3 337 68 191 
3 333 93 282 
3 256 66 196 
3 135 174 347 
3 183 180 195 
3 117 285 236 
3 182 111 63 
3 354 318 352 
3 114 234 68 
3 71 65 184 
3 135 136 174 
3 191 215 337 
3 337 215 114 
3 63 33 182 
3 133 135 181 
3 135 347 181 
3 110 23 81 
3 157 180 183 
3 149 157 183 
3 227 147 220 
3 12 23 30 
3 151 99 46 
3 174 215 191 
3 99 328 46 
3 114 148 234 
3 149 150 157 
3 220 147 284 
3 79 186 336 
3 68 234 191 
3 396 357 356 
3 99 23 12 
3 328 99 12 
3 337 114 68 
3 356 358 396 
3 338 343 342 
3 223 340 339 
3 265 103 96 
3 341 223 339 
3 347 174 191 
3 182 251 201 
3 134 115 80 
3 12 30 203 
3 345 343 338 
3 147 227 103 
3 33 108 251 
3 95 20 91 
3 181 347 191 
3 345 346 343 
3 157 150 180 
3 103 227 18 
3 66 240 58 
3 345 344 346 
3 146 32 108 
3 445 125 444 
3 30 95 91 
3 124 373 374 
3 137 249 72 
3 344 345 338 
3 344 168 346 
3 12 203 328 
3 284 147 103 
3 240 66 37 
3 344 173 168 
3 314 384 322 
3 107 282 93 
3 76 53 107 
3 107 53 282 
3 282 53 333 
3 165 76 107 
3 315 202 291 
3 165 144 76 
3 407 374 367 
3 144 53 76 
3 388 389 92 
3 155 144 330 
3 144 224 53 
3 432 431 434 
3 155 189 144 
3 144 189 224 
3 189 335 53 
3 224 189 53 
3 146 29 32 
3 382 88 209 
3 331 316 350 
3 331 353 316 
3 357 367 366 
3 360 357 366 
3 367 374 373 
3 366 367 373 
3 373 407 374 
3 388 92 169 
3 170 65 155 
3 155 65 189 
3 328 203 91 
3 413 421 414 
3 356 331 358 
3 242 328 91 
3 168 343 346 
3 113 198 122 
3 124 113 122 
3 239 200 315 
3 331 356 357 
3 372 26 102 
3 375 372 102 
3 26 163 102 
3 408 372 375 
3 72 87 65 
3 170 72 65 
3 87 184 65 
3 63 108 11 
3 63 29 108 
3 370 285 231 
3 389 370 231 
3 131 18 140 
3 33 63 108 
3 368 306 321 
3 374 113 124 
3 285 324 268 
3 231 285 268 
3 336 272 186 
3 224 155 139 
3 363 369 372 
3 86 193 163 
3 208 63 111 
3 380 305 202 
3 356 357 321 
3 346 354 352 
3 346 168 354 
3 168 359 354 
3 364 290 369 
3 363 364 369 
3 290 371 372 
3 369 290 372 
3 371 70 26 
3 372 371 26 
3 70 188 26 
3 188 54 26 
3 54 163 26 
3 54 86 163 
3 54 28 86 
3 28 38 86 
3 38 197 86 
3 38 104 197 
3 104 218 87 
3 218 160 87 
3 160 184 87 
3 58 240 208 
3 240 37 63 
3 208 240 63 
3 340 64 132 
3 343 168 346 
3 400 367 357 
3 396 400 357 
3 54 292 28 
3 96 103 18 
3 346 168 343 
3 249 137 248 
3 200 209 199 
3 79 222 281 
3 327 308 309 
3 343 346 352 
3 383 388 169 
3 200 88 209 
3 285 186 324 
3 241 48 79 
3 16 100 79 
3 303 100 79 
3 323 105 451 
3 100 303 186 
3 100 16 79 
3 321 353 331 
3 236 285 370 
3 389 231 92 
3 100 285 117 
3 108 63 11 
3 186 303 79 
3 88 382 209 
3 82 236 389 
3 100 241 79 
3 45 72 71 
3 0 169 97 
3 45 137 72 
3 285 100 186 
3 137 45 58 
3 199 378 305 
3 208 137 58 
3 356 331 357 
3 305 380 202 
3 378 349 305 
3 169 92 315 
3 192 262 75 
3 361 192 75 
3 291 202 237 
3 258 293 207 
3 272 79 377 
3 324 186 268 
3 268 186 88 
3 90 389 388 
3 169 315 291 
3 97 169 291 
3 79 320 377 
3 4 383 169 
3 379 317 368 
3 200 202 315 
3 92 239 315 
3 306 353 321 
3 370 389 236 
3 48 222 79 
3 206 361 185 
3 361 206 185 
3 92 231 239 
3 356 321 331 
3 190 171 185 
3 249 190 185 
3 206 198 361 
3 198 192 361 
3 90 388 383 
3 305 124 237 
3 327 311 326 
3 4 90 383 
3 190 249 1 
3 206 361 185 
3 171 206 185 
3 202 305 237 
3 108 29 146 
3 308 310 309 
3 334 100 117 
3 90 82 389 
3 79 336 186 
3 224 53 335 
3 354 381 318 
3 231 268 239 
3 186 272 209 
3 88 186 209 
3 200 199 202 
3 327 326 319 
3 308 327 319 
3 309 311 327 
3 435 443 446 
3 199 305 202 
3 97 171 190 
3 171 97 206 
3 97 291 206 
3 237 198 206 
3 291 237 206 
3 406 124 305 
3 399 402 400 
3 373 374 407 
3 300 304 311 
3 304 313 311 
3 407 213 113 
3 208 111 256 
3 403 402 399 
3 363 403 399 
3 29 128 32 
3 403 375 402 
3 363 399 359 
3 194 192 198 
3 193 86 75 
3 400 213 407 
3 272 336 79 
3 79 281 320 
3 300 302 297 
3 294 298 304 
3 299 322 314 
3 307 299 314 
3 322 384 314 
3 377 281 325 
3 387 377 325 
3 281 377 320 
3 355 358 331 
3 101 102 262 
3 363 375 403 
3 197 204 75 
3 102 101 262 
3 299 384 322 
3 262 163 193 
3 318 343 352 
3 299 322 384 
3 299 393 322 
3 322 393 384 
3 137 208 256 
3 86 197 75 
3 186 79 336 
3 222 264 281 
3 185 361 75 
3 365 360 366 
3 386 392 393 
3 299 386 393 
3 393 392 384 
3 392 394 384 
3 394 398 387 
3 384 394 387 
3 404 377 387 
3 398 404 387 
3 404 209 377 
3 209 272 377 
3 399 400 358 
3 359 399 358 
3 101 163 262 
3 262 193 75 
3 102 101 375 
3 204 72 249 
3 31 148 134 
3 424 437 427 
3 359 358 355 
3 400 402 213 
3 204 249 185 
3 351 317 386 
3 390 351 386 
3 317 392 386 
3 392 317 394 
3 317 395 394 
3 395 397 398 
3 394 395 398 
3 397 405 404 
3 398 397 404 
3 199 209 404 
3 405 199 404 
3 268 88 239 
3 75 204 185 
3 318 352 354 
3 243 18 227 
3 397 385 405 
3 385 199 405 
3 262 192 194 
3 101 262 194 
3 18 131 96 
3 349 378 199 
3 385 349 199 
3 250 158 167 
3 293 250 167 
3 379 362 395 
3 317 379 395 
3 395 362 397 
3 362 365 397 
3 365 401 397 
3 401 349 385 
3 397 401 385 
3 375 194 213 
3 213 194 113 
3 375 101 194 
3 354 352 318 
3 342 343 318 
3 375 213 402 
3 451 261 443 
3 32 250 293 
3 258 32 293 
3 113 194 198 
3 351 409 368 
3 355 331 354 
3 339 340 344 
3 372 375 363 
3 339 344 338 
3 368 321 379 
3 360 362 379 
3 360 365 362 
3 366 365 362 
3 365 366 362 
3 406 349 401 
3 365 406 401 
3 108 258 52 
3 258 108 32 
3 305 349 406 
3 297 302 301 
3 52 251 108 
3 321 360 379 
3 384 325 314 
3 373 406 365 
3 366 373 365 
3 373 349 406 
3 349 373 406 
3 373 124 406 
3 106 105 323 
3 439 434 431 
3 18 243 229 
3 83 57 260 
3 447 83 260 
3 418 425 429 
3 439 441 434 
3 441 442 434 
3 257 106 323 
3 391 425 418 
3 435 437 444 
3 257 323 452 
3 391 418 294 
3 296 440 441 
3 440 296 441 
3 131 59 138 
3 294 413 295 
3 95 30 20 
3 428 432 434 
3 422 424 415 
3 294 420 413 
3 425 296 429 
3 414 422 415 
3 425 121 296 
3 296 440 431 
3 452 323 451 
3 296 83 447 
3 431 441 439 
3 445 444 436 
3 429 296 431 
3 450 56 106 
3 301 121 433 
3 106 257 452 
3 414 415 411 
3 390 413 386 
3 18 229 59 
3 59 229 46 
3 386 414 411 
3 301 433 425 
3 248 256 196 
3 411 416 412 
3 300 391 304 
3 422 436 424 
3 46 229 151 
3 127 121 301 
3 412 419 356 
3 295 413 390 
3 351 390 411 
3 442 56 125 
3 409 351 412 
3 247 243 13 
3 330 172 155 
3 451 118 67 
3 364 44 290 
3 290 44 166 
3 166 210 265 
3 265 210 284 
3 442 436 434 
3 229 99 151 
3 364 449 44 
3 449 283 44 
3 418 420 294 
3 363 449 364 
3 212 284 210 
3 44 210 166 
3 420 428 422 
3 44 212 210 
3 247 229 243 
3 229 247 99 
3 127 266 178 
3 56 450 260 
3 413 420 421 
3 359 168 363 
3 363 168 449 
3 415 424 416 
3 296 447 260 
3 212 220 284 
3 436 437 424 
3 351 411 412 
3 440 441 431 
3 283 212 44 
3 451 67 261 
3 168 173 449 
3 449 173 283 
3 426 342 318 
3 381 426 318 
3 212 348 220 
3 266 127 301 
3 426 338 342 
3 149 283 173 
3 149 212 283 
3 438 338 426 
3 433 121 425 
3 149 183 212 
3 414 421 422 
3 172 170 155 
3 368 317 351 
3 350 381 376 
3 67 259 261 
3 183 112 212 
3 212 112 348 
3 348 112 220 
3 432 431 434 
3 448 339 338 
3 438 448 338 
3 420 431 432 
3 112 221 220 
3 428 420 432 
3 431 432 434 
3 417 381 350 
3 422 428 434 
3 423 426 381 
3 417 423 381 
3 56 260 57 
3 451 105 118 
3 296 260 440 
3 386 413 414 
3 306 350 316 
3 448 341 339 
3 415 416 411 
3 436 444 437 
3 259 341 448 
3 297 425 391 
3 442 125 445 
3 450 106 452 
3 410 350 306 
3 341 259 223 
3 355 417 350 
3 410 355 350 
3 259 64 223 
3 410 356 350 
3 356 410 350 
3 356 355 410 
3 355 419 417 
3 247 13 99 
3 195 112 183 
3 180 112 195 
3 419 355 356 
3 301 425 297 
3 390 386 411 
3 446 259 448 
3 446 261 259 
3 434 436 422 
3 421 420 422 
3 409 410 306 
3 368 409 306 
3 412 356 410 
3 409 412 410 
3 442 445 436 
3 435 423 430 
