ply
format ascii 1.0
comment VCGLIB generated
element vertex 20
property float x
property float y
property float z
element face 36
property list uchar int vertex_indices
end_header
0 -1.5 0 
0 1.5 0 
1 -1.5 0 
0.766044 -1.5 0.642788 
0.173648 -1.5 0.984808 
-0.5 -1.5 0.866025 
-0.939693 -1.5 0.34202 
-0.939693 -1.5 -0.34202 
-0.5 -1.5 -0.866025 
0.173648 -1.5 -0.984808 
0.766044 -1.5 -0.642788 
1 1.5 0 
0.766044 1.5 0.642788 
0.173648 1.5 0.984808 
-0.5 1.5 0.866025 
-0.939693 1.5 0.34202 
-0.939693 1.5 -0.34202 
-0.5 1.5 -0.866025 
0.173648 1.5 -0.984808 
0.766044 1.5 -0.642788 
3 0 2 3 
3 0 3 4 
3 0 4 5 
3 0 5 6 
3 0 6 7 
3 0 7 8 
3 0 8 9 
3 0 9 10 
3 0 10 2 
3 1 12 11 
3 1 13 12 
3 1 14 13 
3 1 15 14 
3 1 16 15 
3 1 17 16 
3 1 18 17 
3 1 19 18 
3 1 11 19 
3 2 11 12 
3 2 12 3 
3 3 12 13 
3 3 13 4 
3 4 13 14 
3 4 14 5 
3 5 14 15 
3 5 15 6 
3 6 15 16 
3 6 16 7 
3 7 16 17 
3 7 17 8 
3 8 17 18 
3 8 18 9 
3 9 18 19 
3 9 19 10 
3 10 19 11 
3 10 11 2 
