ply
format ascii 1.0
comment VCGLIB generated
element vertex 285
property float x
property float y
property float z
property float nx
property float ny
property float nz
element face 566
property list uchar int vertex_indices
end_header
0.253918 -0.442981 0.055391 0.850573 -0.193613 -0.883598 
0.193065 -0.402809 0.075079 1.57691 2.13759 -4.86041 
0.216329 -0.411118 0.117774 4.01281 2.82415 2.35593 
0.464927 0.462671 0.092753 1.71473 2.06082 -0.965847 
0.502844 0.362898 0.099031 0.74037 -0.60133 -0.0993202 
0.430622 0.414708 0.066497 -0.00858863 -0.397112 -4.56934 
0.343773 0.419318 0.135381 -1.44001 0.704029 3.33801 
0.35494 0.363601 0.093467 3.94776 -2.17032 -0.358853 
0.393056 0.397033 0.092682 -0.571222 -4.50582 -1.93071 
0.331197 0.434564 0.091516 -1.92549 2.42337 -1.30954 
0.442257 0.469759 0.135541 0.817476 2.34075 1.57942 
0.323186 0.378956 0.070754 -0.727579 0.939742 -4.68188 
-0.341676 -0.355568 -0.092962 -2.28524 -1.28369 0.439142 
-0.292306 -0.360346 -0.057804 -0.855477 -2.09612 2.68672 
-0.325044 -0.296139 -0.087136 -3.97308 1.71188 1.61504 
-0.29407 -0.357352 -0.162632 -1.20861 -1.53071 -2.4376 
-0.385409 -0.311733 -0.039309 -2.1927 1.64213 -4.49921 
-0.377556 -0.27143 -0.013927 -5.27516 2.05856 1.01971 
-0.331611 -0.155482 -0.034959 -2.96354 0.960865 -4.48264 
-0.343216 -0.142872 -0.004838 -4.96134 1.27905 0.629782 
-0.303714 -0.080386 0.040423 -3.74189 1.0718 3.53417 
-0.308329 -0.0623 -0.016344 -4.10771 2.55769 -1.79714 
-0.24618 -0.042546 -0.050295 -3.5998 2.41406 -4.13484 
0.451853 0.387173 0.145294 0.724095 -1.64356 2.61742 
0.395406 0.414849 0.146814 -1.05725 -1.62044 4.1295 
0.288023 0.352986 0.096111 -4.16313 1.35013 0.0712146 
0.308949 0.322361 0.121962 -0.0913647 -0.352256 4.52212 
0.279774 0.249136 0.109709 -2.49012 -0.031307 4.84329 
0.255375 0.227568 0.078824 -4.70287 1.57885 -0.386056 
0.230689 0.140342 0.067578 -4.81974 1.79846 0.294728 
0.152086 -0.182523 0.100923 0.58505 -3.45747 -2.81609 
0.107871 -0.219917 0.122531 -4.95002 -0.206805 -2.21179 
0.10867 -0.186425 0.10485 -2.31648 -4.75272 0.363811 
0.088907 -0.202785 0.056425 -0.556118 -5.56946 0.593484 
0.078348 -0.198691 0.004137 -0.188414 -5.60884 -1.35555 
0.192287 -0.177161 0.05114 2.01996 -5.78267 -0.138794 
0.137719 -0.422311 -0.046148 -0.89674 -2.9787 2.14995 
0.19806 -0.422784 -0.042723 0.768761 -0.449714 0.617065 
0.14641 -0.390264 -0.043173 1.78604 0.211374 5.56218 
0.16862 -0.411773 -0.137047 0.413325 -0.501811 -1.50037 
0.101234 -0.406301 -0.071433 -3.49694 -2.42833 0.536266 
0.210393 -0.406356 -0.092758 1.49491 -0.140216 -0.305489 
0.173696 -0.241994 -0.035879 2.72672 -1.99037 4.57736 
0.123086 -0.295161 -0.028697 -1.00886 -0.291439 5.61143 
0.114837 -0.367934 -0.040054 -2.58068 -1.07194 4.83514 
0.087482 -0.307033 -0.060325 -4.82861 -0.260046 0.270067 
-0.193535 -0.146797 0.111135 -5.23575 -0.817729 1.93632 
-0.166516 -0.186353 0.136358 -2.66309 -0.555682 4.88439 
-0.175959 -0.061965 0.13249 -2.98227 0.786676 4.71128 
0.167756 -0.441217 0.069581 -1.95982 -1.66674 -2.42289 
0.145964 -0.377341 0.085662 -3.46707 -0.334048 -3.92401 
0.175549 -0.459509 0.120942 -1.84716 -2.89715 1.20722 
0.258764 -0.448659 0.112352 2.10176 -0.514699 0.306157 
0.240934 -0.463658 0.144823 0.677165 -0.784968 0.959868 
-0.318646 -0.316735 -0.13118 -4.24846 1.46876 -3.39494 
-0.26083 -0.212223 -0.12697 -2.89124 2.60142 -3.20252 
-0.153129 -0.222376 -0.105362 4.27111 -3.0087 -1.09449 
-0.259358 -0.314961 -0.070459 3.76061 -0.525973 4.45653 
-0.241474 -0.319792 -0.117517 4.78893 0.70047 -1.8959 
-0.202536 -0.244119 -0.139999 1.82101 -1.18387 -4.94119 
-0.326126 -0.274748 0.021696 2.0011 -1.74645 3.02165 
-0.2734 -0.184213 -0.040061 1.69672 -2.21235 -4.02166 
-0.277582 -0.195137 0.02001 2.43077 -3.43086 3.186 
-0.330237 -0.281607 -0.03781 2.66077 -1.67176 -3.07947 
-0.363075 -0.332687 0.007492 1.16465 -1.93585 2.3315 
-0.369121 -0.321132 -0.040145 1.60099 -1.93598 -4.52651 
-0.466027 -0.347673 -0.031726 -0.740853 -0.164878 -2.6033 
0.171925 -0.048416 0.161677 0.0708489 2.15394 5.16642 
0.138667 -0.11533 0.166643 -1.89368 0.564775 5.65366 
0.197949 -0.113829 0.170223 1.74251 0.0844121 5.4427 
0.322573 0.219156 0.074699 4.84381 -0.540949 -0.150339 
0.053936 0.001507 0.112472 -0.389015 3.39855 5.25071 
-0.061409 -0.003765 0.113929 0.733091 2.61714 5.54305 
-0.012325 -0.036657 0.130961 -0.603222 1.31984 5.88396 
0.190924 -0.169252 0.002188 2.41382 -4.97067 1.59232 
0.149004 -0.175677 0.005451 1.26597 -4.33841 0.72137 
0.112383 -0.184628 -0.018143 -1.32823 -4.54826 1.15159 
0.146656 -0.227516 -0.084261 0.17917 -0.0480379 -5.9284 
0.114378 -0.15367 -0.070016 -2.53898 -0.359058 -5.58128 
0.186886 -0.153562 -0.093006 0.39404 -0.634407 -5.74516 
0.096379 -0.232886 -0.06913 -4.13137 0.777575 -3.17544 
0.12475 -0.065731 -0.072879 -1.00285 1.0076 -6.03126 
0.172902 -0.073996 -0.087577 -0.428199 1.24023 -5.78795 
0.238808 -0.154183 0.081966 4.25052 -3.98395 0.367926 
0.228769 -0.176356 0.109769 4.00435 -2.63477 -1.14642 
0.23048 -0.139956 0.138722 4.96378 -1.20953 3.16863 
0.312429 0.114484 0.067117 5.29622 -0.275902 0.308917 
0.307028 0.005977 0.050786 5.50904 -0.488302 0.491735 
0.299011 0.029059 0.030421 5.09292 0.480928 -3.34557 
0.284377 -0.081644 -0.001793 5.1829 -1.61943 -1.99477 
0.287018 0.049769 0.092063 3.65812 -0.376478 4.63396 
0.235756 -0.147266 -0.010403 4.50586 -4.01133 -0.679224 
0.21848 -0.17625 -0.040347 5.02238 -2.40473 0.0624953 
0.181529 -0.255691 -0.061772 4.81386 -1.06501 -1.46955 
0.203675 -0.172134 -0.079864 3.84784 -1.97199 -3.93025 
0.050382 -0.16767 0.10852 -1.30905 -4.3795 3.9475 
0.054632 -0.184653 0.074492 -1.5358 -5.75794 1.81495 
0.101287 -0.156414 0.132003 -3.95968 -1.79542 3.67754 
-0.060279 -0.143594 0.103041 2.57946 -2.40229 4.03369 
-0.024489 -0.17367 0.064027 0.345935 -5.54206 2.65746 
-0.500517 -0.341185 -0.013596 -0.40478 0.102948 0.0493898 
-0.482113 -0.3554 -0.011677 -0.89018 -1.94207 1.05373 
-0.383272 -0.350957 -0.021012 1.35786 -3.90119 -0.900502 
-0.4365 -0.354922 -0.019448 0.132326 -4.10781 0.864091 
-0.433858 -0.334107 -0.010409 -1.55748 1.98589 3.10354 
-0.392975 -0.308706 -0.007914 -3.66556 2.66635 2.63773 
-0.311941 -0.164359 0.030658 -2.41756 -0.554833 5.26891 
-0.333571 -0.243078 0.022828 -1.93321 0.262077 5.40742 
-0.229061 -0.14392 0.050446 -1.16785 -3.61167 4.24011 
-0.24217 -0.116229 -0.040834 -2.93901 0.0932391 -3.95596 
-0.248532 -0.150147 -0.042477 -2.21412 -1.26529 -4.23248 
-0.242705 -0.183472 -0.075241 -4.52464 0.797716 2.16979 
-0.270962 -0.218841 -0.076427 -3.51995 2.47873 2.59633 
-0.229728 -0.175054 -0.115243 -3.34705 2.56212 -3.91137 
-0.195887 -0.153476 -0.020289 0.358286 -5.21815 1.22307 
-0.18563 -0.210555 -0.062317 0.985854 -2.05188 5.58727 
-0.096921 -0.164638 0.02826 -1.49721 -5.50443 -1.33933 
-0.195626 -0.155978 0.004403 0.759574 -6.06063 0.508673 
0.169022 -0.374945 -0.07589 5.15329 1.92618 0.486416 
0.15037 -0.368557 -0.101107 2.34973 2.54276 -4.69534 
0.111691 -0.417068 -0.096792 -0.921983 -1.90614 -0.515168 
0.111667 -0.363221 -0.096294 -3.23348 0.679035 -4.74954 
-0.15883 -0.247756 0.126566 -3.56665 -0.389527 4.16599 
-0.167948 -0.399964 0.034758 -2.03868 -1.52789 -2.30244 
-0.123596 -0.3673 0.037911 1.73221 2.36605 -4.84405 
-0.137363 -0.397559 0.018888 -1.00497 -0.498866 -3.60972 
-0.153892 -0.306116 0.061232 -3.25394 1.95116 -4.68169 
-0.123806 -0.296086 0.054141 0.257053 1.98497 -5.3533 
-0.122962 -0.250437 0.076297 -1.15668 0.812729 -5.7948 
-0.162183 -0.237948 0.105269 -5.19569 -0.161275 -2.36815 
-0.0795 -0.287412 0.090729 5.07304 -2.08942 0.901152 
-0.090963 -0.294601 0.069375 3.77605 0.266724 -4.22744 
-0.062012 -0.24396 0.08781 3.61397 -0.848386 -1.01415 
-0.103377 -0.370548 0.072388 5.11759 1.49743 0.84022 
-0.092315 -0.239238 0.14085 2.20686 -0.890053 4.33696 
-0.11179 -0.28656 0.128018 3.22724 -2.49415 4.62814 
-0.094272 -0.190343 0.141795 2.01867 -0.166735 5.26342 
-0.136548 -0.150949 0.136409 -0.8216 -0.107016 6.18557 
-0.078197 -0.112342 0.141465 3.23245 -0.0927251 4.73919 
-0.106394 -0.090533 0.149515 0.486545 0.384311 5.74201 
0.129047 -0.343795 0.112454 -5.37362 -1.34397 0.202264 
0.142689 -0.333056 0.141948 -2.88885 -1.19768 4.59575 
-0.229725 -0.363736 -0.057543 1.11471 -0.905544 1.45903 
-0.220617 -0.356678 -0.083804 4.81842 0.334435 1.3145 
-0.214158 -0.355543 -0.117154 3.96481 -0.480618 0.0797497 
-0.245273 -0.360696 -0.162209 0.886554 -1.09561 -2.09406 
-0.21778 -0.358827 -0.145588 1.65704 -0.610328 -1.22182 
-0.273952 -0.336131 -0.159665 0.547226 2.24342 -5.0686 
-0.276679 -0.292935 -0.142999 -0.236713 0.927554 -5.66554 
-0.166507 -0.196825 -0.133354 2.32954 -0.688644 -5.0338 
-0.187182 -0.19536 -0.134188 -0.517064 1.26522 -6.03395 
-0.244875 -0.001319 0.047458 -3.45022 3.91089 2.49131 
-0.212232 0.025327 0.02318 -2.29864 5.15552 -0.0577329 
-0.281429 -0.023846 0.011596 -3.95568 3.78266 -0.0830553 
0.113076 -0.046057 0.13769 -0.952292 1.75153 5.85632 
0.108896 -0.106924 0.145018 -2.32933 0.118524 5.6523 
0.121329 0.004899 0.113608 -0.160216 3.94326 4.82156 
0.121599 -0.194303 0.165051 -2.24396 -0.462159 5.1239 
0.109423 -0.191358 0.153679 -5.00078 -0.299766 2.72215 
0.079498 -0.060188 -0.071065 0.457966 1.01651 -5.99062 
0.05652 0.003238 -0.038045 -0.337901 4.15277 -4.55005 
0.110515 0.000633 -0.04776 -0.546904 3.11609 -5.33695 
0.183749 0.01764 -0.03783 0.340906 4.61357 -4.09957 
0.180112 -0.00254 -0.058434 0.35412 3.21801 -4.95787 
0.242661 0.015974 -0.022201 2.35699 3.02461 -4.76381 
0.217097 0.05989 0.010703 -1.27914 4.07932 -4.38479 
0.089966 0.032991 0.090343 0.31622 4.74972 3.72376 
0.09794 0.049033 0.064933 -1.15766 5.1742 2.61741 
0.092079 0.054148 0.045154 -0.486927 5.93624 0.300031 
-0.059973 -0.09243 0.12461 1.34214 -0.280151 5.76526 
-0.010853 -0.115166 0.130336 -0.879077 -1.64944 5.7166 
0.065732 -0.124091 0.135758 -1.05713 -1.5521 5.8791 
0.080549 -0.091717 0.143359 -1.84305 0.266362 5.54124 
-0.10137 -0.191695 0.058076 -0.694451 -3.19615 -5.06351 
-0.144515 -0.184592 0.080657 -2.59317 -2.58991 -4.70731 
-0.055402 -0.193107 0.072867 4.10667 -1.39705 -1.35025 
-0.056254 -0.184207 0.066031 2.95921 -4.25137 -0.373769 
-0.062674 -0.180956 -0.008201 -1.80076 -5.6585 -1.17814 
-0.224988 -0.113972 -0.095886 -4.38731 1.13346 -3.65407 
-0.22178 -0.068291 -0.087081 -3.67493 1.22399 -4.26769 
-0.072118 -0.020925 -0.074593 1.10108 2.87643 -5.32651 
-0.131071 -0.065996 -0.110475 1.20425 1.48734 -5.63602 
-0.116601 -0.004063 -0.082797 0.555125 3.62559 -4.28681 
-0.217402 -0.246821 -0.057029 1.02679 -0.7125 5.32359 
-0.257668 -0.274018 -0.058691 -0.743481 -0.00871322 5.76842 
-0.158664 -0.21614 -0.077842 3.66962 -3.53483 3.10542 
-0.124958 -0.173707 -0.084275 5.08091 -2.86184 -0.153518 
-0.136674 -0.122271 -0.121924 1.99243 0.562588 -5.4905 
-0.12196 -0.135842 -0.112689 4.29589 -0.591102 -3.69657 
-0.085516 -0.063868 -0.084286 1.65592 0.0699491 -5.82556 
-0.095514 -0.10408 -0.077505 2.5256 -1.87947 -4.69224 
0.262206 -0.100495 0.095442 5.28522 -1.80161 2.51022 
0.292015 -0.083194 0.04553 5.26462 -1.99088 0.688993 
0.262081 -0.126607 0.041693 5.35669 -3.03814 0.0120577 
0.254511 -0.14578 0.043524 4.26946 -3.39818 -0.0814448 
0.239575 -0.115321 -0.065233 4.79286 -1.46124 -3.03143 
0.21717 -0.123884 -0.088295 2.65906 -0.3914 -4.86344 
0.251379 -0.055617 -0.053556 4.28858 0.943665 -4.08985 
0.227351 -0.058863 -0.073583 2.48731 1.52869 -5.09055 
-0.200731 -0.009953 0.092937 -2.98382 2.65162 4.2019 
-0.211375 -0.062762 0.080271 -3.78742 -0.911635 4.5528 
-0.186759 -0.167632 0.088735 -4.4841 -3.15287 -1.27429 
-0.193448 -0.140629 0.075264 -4.47936 -0.0305231 2.89888 
-0.252239 -0.099426 0.053694 -1.96064 -1.27603 5.80098 
-0.194936 -0.099386 0.073304 -3.46691 -1.06491 1.81932 
-0.176745 -0.316035 0.110935 -4.1907 -0.0763878 4.26534 
-0.183141 -0.299674 0.097383 -4.83973 1.11798 -0.426957 
-0.07215 -0.413394 0.060237 1.96821 -0.895251 0.111051 
-0.086351 -0.390433 0.069288 4.1089 2.86495 0.0450075 
-0.093214 -0.421127 0.095086 1.79345 -2.0472 0.9707 
-0.148346 -0.41934 0.117768 -1.23649 -2.45113 1.81491 
-0.106639 -0.39612 0.102698 3.57161 2.59362 3.90477 
-0.120762 -0.417598 0.122517 0.984782 -1.37773 2.82254 
-0.079207 -0.413724 0.025739 1.40016 -1.17525 -1.26011 
-0.087061 -0.398174 0.023907 2.31718 2.03093 -2.81006 
-0.187765 -0.401024 0.095291 -2.80354 -2.27004 1.23207 
-0.194059 -0.379206 0.085738 -4.92742 -0.0497313 -0.185071 
-0.150327 -0.381303 0.115576 0.0497917 0.639187 5.50512 
-0.155254 -0.348131 0.119108 -0.372079 -1.22248 5.21055 
-0.204767 -0.021031 -0.074537 -2.54282 3.47448 -3.88283 
-0.190324 0.009112 -0.042287 -1.96135 4.98943 -2.74704 
-0.137175 0.044682 0.033669 -0.945936 5.7928 -0.0167311 
0.126186 -0.276829 0.10026 -3.01393 0.0641052 -4.39943 
0.159164 -0.258472 0.102519 1.67724 0.23916 -5.875 
0.197702 -0.318038 0.128951 5.07327 0.532524 2.17171 
0.201124 -0.346962 0.100268 4.78273 1.38812 -2.7911 
0.175776 -0.353983 0.143589 1.21483 -0.470549 5.70747 
0.186728 -0.424408 0.13406 -0.328999 -0.340505 5.84984 
0.214336 -0.205696 0.123693 5.01712 -2.55324 -0.15359 
0.186686 -0.264361 0.12328 5.26463 -0.353226 -2.00373 
0.202985 -0.196851 0.155259 3.72368 -1.34517 4.188 
0.123881 -0.265986 0.145021 -3.00603 -1.44538 5.10902 
0.110576 -0.268159 0.132172 -4.77938 -1.19791 1.05474 
0.179674 -0.270603 0.148954 3.629 -1.0205 4.28594 
0.166913 -0.249566 0.158866 0.612723 -1.19395 5.86108 
-0.097673 0.028437 -0.034731 0.329662 5.31239 -2.57638 
-0.05198 0.025174 -0.021531 0.811332 5.50822 -2.82416 
-0.128131 -0.030612 0.137772 -0.777409 2.19463 5.37011 
-0.095007 -0.001206 0.124533 0.446277 2.96555 4.89502 
-0.070862 0.035498 0.085886 -0.116907 5.0045 3.29748 
-0.141815 0.027179 0.086128 -1.40214 4.80825 3.15806 
0.093845 0.02919 -0.024196 -0.884233 4.67724 -3.55243 
0.091895 0.043023 0.000781 2.17412 3.46345 -1.63193 
-0.067322 0.052017 0.037065 -0.264449 5.73386 -0.318473 
0.012061 0.051077 0.0402 -0.0486839 5.73424 -0.42669 
0.081698 -0.043346 0.137769 -0.466654 1.24172 6.03578 
0.090471 -0.013546 0.130103 -0.199917 2.61568 5.29125 
-0.135693 -0.153354 -0.028657 0.884275 -5.34682 0.0967425 
-0.103395 -0.163114 -0.011238 -1.36709 -5.95012 -1.18745 
-0.0725 -0.156291 -0.053293 -0.758299 -4.23755 -3.99582 
-0.106605 -0.144563 -0.062175 2.73449 -4.23125 -2.34343 
0.098796 -0.209202 -0.038783 -4.29237 -0.14415 2.80421 
0.091601 -0.248392 -0.046714 -4.84614 0.21097 2.11696 
0.101273 -0.180705 -0.054221 -5.86691 0.792736 -1.16149 
0.096163 -0.178064 -0.034996 -2.26649 -5.06056 -2.45715 
0.019696 -0.104863 -0.083101 0.741175 -1.32893 -5.81122 
-0.025555 -0.075285 -0.089776 0.0514438 -0.079844 -5.99917 
0.071253 -0.152834 -0.055699 -0.460399 -3.25877 -5.01467 
0.009617 -0.139523 -0.066794 -0.0204284 -3.38472 -5.17408 
-0.155283 -0.095812 -0.117689 -0.81527 1.44185 -5.93281 
-0.16247 -0.035906 -0.097467 -1.1095 2.66976 -5.34133 
0.230527 -0.075524 0.147748 3.48698 0.996307 4.41163 
0.255729 -0.049382 0.116849 4.08271 0.338211 4.35538 
0.21013 0.001868 0.121103 0.740754 2.6418 5.45878 
0.235502 0.043762 0.105371 -0.39573 1.52125 5.86033 
0.292303 0.258422 0.060764 -2.08006 1.31986 -5.50339 
0.306725 0.238631 0.057447 2.30003 0.459259 -5.35114 
0.293061 0.126886 0.035349 2.94089 0.8533 -4.74515 
0.269864 0.06384 0.010843 2.10544 1.61867 -5.30382 
0.262105 0.184529 0.046019 -2.41396 1.59563 -4.76651 
0.25137 0.127709 0.032912 -2.02747 2.1999 -4.94133 
0.262726 0.162099 0.101035 -2.36029 0.234929 5.24315 
0.298602 0.208777 0.102058 2.82062 -0.818209 5.08218 
0.24414 0.092919 0.097453 -2.5506 1.36975 5.36314 
0.276685 0.110124 0.100552 0.770086 -0.248949 6.11646 
0.199991 0.08623 0.059945 -3.82547 3.78975 0.506427 
0.191802 0.053073 0.082792 -2.27111 3.57638 4.53352 
0.17396 0.063508 0.040779 -1.8938 5.51166 -1.85736 
0.156978 0.05418 0.058972 -1.52901 5.28684 2.81374 
-0.017618 -0.039974 -0.081723 0.549414 2.2985 -5.61021 
-0.004499 -0.009779 -0.05896 0.758721 4.22834 -4.42697 
0.009348 -0.186034 -0.003661 -0.0743277 -5.96741 -1.10542 
-0.008998 -0.192167 -0.001047 0.810743 -5.1707 -0.740194 
-0.042873 -0.174306 -0.035993 -0.0792382 -4.78422 -3.38236 
-0.030833 -0.163219 -0.043478 0.503626 -4.59827 -4.22249 
3 0 1 2 
3 3 4 5 
3 6 7 8 
3 4 8 5 
3 9 6 10 
3 9 10 3 
3 9 3 5 
3 11 9 8 
3 9 5 8 
3 8 7 11 
3 12 13 14 
3 15 13 12 
3 16 17 18 
3 19 20 21 
3 18 19 21 
3 18 17 19 
3 21 22 18 
3 3 23 4 
3 10 24 23 
3 3 10 23 
3 24 10 6 
3 24 8 23 
3 4 23 8 
3 24 6 8 
3 25 6 9 
3 11 25 9 
3 26 25 27 
3 7 6 26 
3 25 26 6 
3 28 27 25 
3 28 29 27 
3 30 31 32 
3 33 34 35 
3 35 30 33 
3 30 32 33 
3 36 37 38 
3 39 36 40 
3 37 36 41 
3 38 37 41 
3 36 39 41 
3 42 43 38 
3 44 45 40 
3 36 44 40 
3 44 38 43 
3 38 44 36 
3 46 47 48 
3 49 50 1 
3 49 1 0 
3 49 0 51 
3 52 53 51 
3 52 51 0 
3 53 52 2 
3 2 52 0 
3 12 54 15 
3 54 12 14 
3 54 14 55 
3 56 57 58 
3 56 58 59 
3 60 61 62 
3 16 18 63 
3 63 18 61 
3 60 63 61 
3 64 63 60 
3 63 65 16 
3 65 66 16 
3 67 68 69 
3 7 26 70 
3 71 72 73 
3 74 35 75 
3 74 75 42 
3 35 76 75 
3 35 34 76 
3 77 78 79 
3 80 78 77 
3 79 81 82 
3 79 78 81 
3 30 83 84 
3 83 30 35 
3 85 84 83 
3 86 87 88 
3 89 88 87 
3 86 90 87 
3 91 74 92 
3 74 42 92 
3 92 42 93 
3 35 74 91 
3 91 92 94 
3 93 94 92 
3 94 93 77 
3 79 94 77 
3 33 95 96 
3 32 95 33 
3 97 95 32 
3 95 98 96 
3 98 99 96 
3 33 96 34 
3 100 66 101 
3 102 103 66 
3 102 64 103 
3 102 66 65 
3 63 102 65 
3 64 102 63 
3 103 101 66 
3 104 105 16 
3 16 105 17 
3 104 16 66 
3 104 66 100 
3 101 104 100 
3 104 101 103 
3 104 64 105 
3 64 104 103 
3 106 19 107 
3 19 106 20 
3 17 107 19 
3 17 105 107 
3 64 107 105 
3 64 60 107 
3 106 107 62 
3 108 106 62 
3 107 60 62 
3 18 109 110 
3 109 18 22 
3 61 18 110 
3 111 110 109 
3 55 112 111 
3 55 111 113 
3 14 112 55 
3 110 114 61 
3 114 110 111 
3 111 115 114 
3 116 108 117 
3 117 62 114 
3 61 114 62 
3 108 62 117 
3 93 118 119 
3 39 119 118 
3 93 42 118 
3 38 118 42 
3 118 38 41 
3 118 41 39 
3 77 93 119 
3 120 45 121 
3 120 40 45 
3 121 45 80 
3 121 80 77 
3 121 77 119 
3 120 121 39 
3 39 40 120 
3 121 119 39 
3 46 122 47 
3 123 124 125 
3 123 126 127 
3 123 127 124 
3 126 128 127 
3 126 129 128 
3 130 131 132 
3 130 133 131 
3 133 124 131 
3 131 124 127 
3 128 131 127 
3 128 132 131 
3 47 122 134 
3 134 135 130 
3 134 130 132 
3 130 135 133 
3 136 137 47 
3 137 48 47 
3 47 134 136 
3 98 136 134 
3 138 136 98 
3 136 139 137 
3 139 48 137 
3 138 139 136 
3 140 50 49 
3 51 140 49 
3 141 140 51 
3 142 143 57 
3 142 144 143 
3 13 142 57 
3 13 15 142 
3 58 143 144 
3 57 143 58 
3 142 145 146 
3 142 15 145 
3 58 146 145 
3 144 146 58 
3 142 146 144 
3 15 147 145 
3 147 15 54 
3 147 54 148 
3 148 54 55 
3 58 147 148 
3 147 58 145 
3 58 148 59 
3 149 59 150 
3 56 59 149 
3 148 150 59 
3 148 55 150 
3 150 55 113 
3 151 152 153 
3 21 20 153 
3 20 151 153 
3 154 155 68 
3 154 68 67 
3 154 67 156 
3 157 68 158 
3 155 158 68 
3 155 97 158 
3 158 97 32 
3 31 158 32 
3 68 157 69 
3 159 160 161 
3 159 161 81 
3 161 162 163 
3 81 163 82 
3 81 161 163 
3 162 164 163 
3 164 162 165 
3 166 156 167 
3 168 166 167 
3 73 169 170 
3 169 73 72 
3 72 139 169 
3 139 138 169 
3 170 169 98 
3 170 98 95 
3 98 169 138 
3 73 170 171 
3 171 170 95 
3 95 97 171 
3 155 172 171 
3 155 171 97 
3 172 155 154 
3 173 174 116 
3 128 174 173 
3 132 128 173 
3 128 129 174 
3 175 98 134 
3 175 134 132 
3 132 173 175 
3 175 173 116 
3 176 98 175 
3 176 175 116 
3 98 176 99 
3 116 177 176 
3 150 178 179 
3 113 178 150 
3 178 113 111 
3 178 109 179 
3 22 179 109 
3 111 109 178 
3 180 181 182 
3 183 184 57 
3 184 183 111 
3 111 112 184 
3 14 184 112 
3 14 13 184 
3 184 13 57 
3 111 183 115 
3 114 115 185 
3 185 115 183 
3 183 57 185 
3 186 185 56 
3 185 57 56 
3 187 188 149 
3 186 56 188 
3 56 149 188 
3 189 187 181 
3 189 181 180 
3 189 190 187 
3 188 187 190 
3 87 191 192 
3 192 89 87 
3 193 89 192 
3 192 191 193 
3 191 85 193 
3 83 194 193 
3 85 83 193 
3 83 35 194 
3 194 91 193 
3 194 35 91 
3 89 193 195 
3 91 195 193 
3 196 195 94 
3 195 91 94 
3 94 79 196 
3 79 82 196 
3 88 197 164 
3 89 197 88 
3 89 195 197 
3 195 198 197 
3 196 198 195 
3 196 82 198 
3 82 163 198 
3 197 198 164 
3 163 164 198 
3 199 200 48 
3 199 20 200 
3 199 151 20 
3 46 48 200 
3 201 202 108 
3 116 201 108 
3 174 201 116 
3 129 201 174 
3 122 201 129 
3 46 202 201 
3 122 46 201 
3 200 203 204 
3 203 202 204 
3 200 20 203 
3 20 106 203 
3 203 106 108 
3 108 202 203 
3 46 204 202 
3 200 204 46 
3 205 122 206 
3 129 206 122 
3 126 206 129 
3 207 133 208 
3 208 209 207 
3 209 210 207 
3 133 207 124 
3 211 208 133 
3 212 209 211 
3 211 209 208 
3 212 210 209 
3 207 213 214 
3 214 213 125 
3 123 125 213 
3 124 214 125 
3 214 124 207 
3 215 205 216 
3 205 206 216 
3 126 216 206 
3 215 216 123 
3 123 216 126 
3 123 213 215 
3 215 213 207 
3 207 210 215 
3 217 218 205 
3 135 134 218 
3 122 218 134 
3 205 218 122 
3 215 217 205 
3 215 210 217 
3 212 217 210 
3 212 211 217 
3 133 218 217 
3 135 218 133 
3 211 133 217 
3 182 219 220 
3 22 21 220 
3 21 153 220 
3 220 153 152 
3 152 221 220 
3 22 220 219 
3 179 22 219 
3 222 223 1 
3 50 222 1 
3 50 140 222 
3 222 30 223 
3 222 31 30 
3 30 84 223 
3 224 2 225 
3 1 225 2 
3 1 223 225 
3 226 141 227 
3 227 141 51 
3 227 51 53 
3 227 53 2 
3 2 226 227 
3 226 2 224 
3 228 229 223 
3 225 229 224 
3 223 229 225 
3 84 228 223 
3 85 228 84 
3 228 85 230 
3 231 157 232 
3 140 231 232 
3 157 158 232 
3 158 31 232 
3 232 31 222 
3 140 232 222 
3 141 231 140 
3 233 226 224 
3 233 224 229 
3 233 229 228 
3 230 234 233 
3 230 233 228 
3 69 234 230 
3 69 157 234 
3 231 234 157 
3 234 141 233 
3 233 141 226 
3 234 231 141 
3 180 182 235 
3 220 235 182 
3 235 221 236 
3 220 221 235 
3 199 48 237 
3 238 237 139 
3 237 48 139 
3 238 139 72 
3 239 238 72 
3 239 72 71 
3 239 71 166 
3 240 239 221 
3 221 152 240 
3 152 151 240 
3 151 199 240 
3 237 240 199 
3 238 239 240 
3 240 237 238 
3 241 242 168 
3 241 160 242 
3 241 162 161 
3 160 241 161 
3 243 239 244 
3 236 243 244 
3 244 239 166 
3 244 166 168 
3 244 168 242 
3 160 244 242 
3 243 236 221 
3 221 239 243 
3 71 73 245 
3 73 171 245 
3 71 245 246 
3 246 245 154 
3 171 172 245 
3 245 172 154 
3 246 154 156 
3 166 246 156 
3 166 71 246 
3 186 247 185 
3 177 116 248 
3 117 248 116 
3 248 114 247 
3 247 114 185 
3 248 117 114 
3 177 248 249 
3 248 250 249 
3 248 247 250 
3 250 247 186 
3 186 188 250 
3 249 250 190 
3 190 250 188 
3 43 251 252 
3 42 251 43 
3 42 75 251 
3 251 75 76 
3 80 252 251 
3 45 252 80 
3 45 44 252 
3 43 252 44 
3 253 254 78 
3 76 254 253 
3 76 34 254 
3 253 78 80 
3 80 251 253 
3 253 251 76 
3 255 256 159 
3 255 190 256 
3 190 189 256 
3 189 180 256 
3 257 258 255 
3 257 255 159 
3 257 159 81 
3 257 81 78 
3 254 257 78 
3 254 34 257 
3 249 190 258 
3 258 190 255 
3 259 179 260 
3 179 219 260 
3 260 219 182 
3 181 260 182 
3 259 260 181 
3 259 181 187 
3 259 187 149 
3 150 259 149 
3 259 150 179 
3 67 261 262 
3 67 69 261 
3 69 230 261 
3 261 230 85 
3 191 261 85 
3 262 261 191 
3 87 262 191 
3 87 90 262 
3 156 67 263 
3 67 262 263 
3 264 263 90 
3 90 263 262 
3 28 25 265 
3 11 266 265 
3 265 25 11 
3 11 7 266 
3 70 266 7 
3 266 267 265 
3 70 267 266 
3 86 267 70 
3 268 267 88 
3 86 88 267 
3 164 268 88 
3 164 165 268 
3 28 269 29 
3 269 28 265 
3 267 269 265 
3 270 29 269 
3 269 267 270 
3 267 268 270 
3 268 165 270 
3 27 271 272 
3 27 29 271 
3 86 272 90 
3 272 86 70 
3 70 26 272 
3 26 27 272 
3 273 274 271 
3 273 264 274 
3 29 273 271 
3 274 264 90 
3 274 90 272 
3 272 271 274 
3 275 276 273 
3 29 275 273 
3 275 29 270 
3 165 275 270 
3 156 263 276 
3 263 264 276 
3 273 276 264 
3 277 278 275 
3 165 277 275 
3 162 277 165 
3 162 241 277 
3 278 277 168 
3 241 168 277 
3 168 167 278 
3 167 156 278 
3 278 156 276 
3 275 278 276 
3 279 280 160 
3 279 180 280 
3 159 279 160 
3 256 279 159 
3 256 180 279 
3 180 235 280 
3 280 235 236 
3 280 236 244 
3 280 244 160 
3 281 99 282 
3 282 99 176 
3 282 176 177 
3 96 281 34 
3 96 99 281 
3 283 177 249 
3 283 249 284 
3 284 249 258 
3 257 284 258 
3 34 284 257 
3 281 284 34 
3 283 284 282 
3 177 283 282 
3 281 282 284 
